<svg width="466" height="118" viewBox="0 0 466 118" fill="none" xmlns="http://www.w3.org/2000/svg">
<path d="M12.3287 14.4132V47.2136H26.0101C31.4671 47.2136 35.7158 45.7714 38.7561 42.887C41.8354 40.0026 43.3751 35.9683 43.3751 30.7842C43.3751 25.6 41.8549 21.5853 38.8146 18.7398C35.7743 15.8554 31.5061 14.4132 26.0101 14.4132H12.3287ZM0.518161 4.70754H26.0101C35.7548 4.70754 43.1412 6.92932 48.1694 11.3729C53.1977 15.7774 55.7118 22.2479 55.7118 30.7842C55.7118 39.3984 53.1977 45.9079 48.1694 50.3124C43.1802 54.717 35.7937 56.9193 26.0101 56.9193H12.3287V92H0.518161V4.70754ZM103.188 68.3205C103.188 73.1539 104.065 76.7984 105.819 79.254C107.612 81.7097 110.243 82.9375 113.712 82.9375H126.282V92H112.659C106.228 92 101.239 89.9536 97.6917 85.8609C94.1836 81.7292 92.4296 75.8824 92.4296 68.3205V9.09263H75.1816V0.673259H103.188V68.3205ZM174.343 59.0826H170.776C164.501 59.0826 159.765 60.1935 156.569 62.4153C153.412 64.5981 151.833 67.8723 151.833 72.2379C151.833 76.1747 153.022 79.2345 155.399 81.4173C157.777 83.6001 161.071 84.6915 165.28 84.6915C171.205 84.6915 175.863 82.6451 179.254 78.5524C182.645 74.4207 184.36 68.7298 184.399 61.4798V59.0826H174.343ZM195.216 54.6391V92H184.399V82.2943C182.1 86.1922 179.196 89.0766 175.688 90.9476C172.219 92.7796 167.989 93.6956 163 93.6956C156.335 93.6956 151.014 91.8246 147.039 88.0827C143.063 84.3017 141.075 79.254 141.075 72.9395C141.075 65.6505 143.511 60.1155 148.383 56.3346C153.295 52.5537 160.486 50.6632 169.958 50.6632H184.399V48.9677C184.36 43.7446 183.035 39.9636 180.424 37.6249C177.812 35.2472 173.641 34.0584 167.912 34.0584C164.248 34.0584 160.545 34.5846 156.803 35.637C153.061 36.6894 149.416 38.2291 145.869 40.256V29.4979C149.845 27.9777 153.645 26.8474 157.27 26.1068C160.934 25.3272 164.481 24.9374 167.912 24.9374C173.33 24.9374 177.949 25.7365 181.768 27.3346C185.627 28.9327 188.746 31.3299 191.123 34.5261C192.604 36.4751 193.657 38.8917 194.281 41.7761C194.904 44.6216 195.216 48.9092 195.216 54.6391ZM255.613 58.7318C255.613 50.6632 254.288 44.5436 251.637 40.3729C249.026 36.1632 245.206 34.0584 240.178 34.0584C234.916 34.0584 230.901 36.1632 228.133 40.3729C225.366 44.5436 223.982 50.6632 223.982 58.7318C223.982 66.8004 225.366 72.959 228.133 77.2076C230.94 81.4173 234.994 83.5222 240.295 83.5222C245.245 83.5222 249.026 81.3978 251.637 77.1492C254.288 72.9005 255.613 66.7614 255.613 58.7318ZM266.371 87.7903C266.371 97.6129 264.052 105.058 259.414 110.125C254.775 115.192 247.954 117.726 238.95 117.726C235.988 117.726 232.889 117.453 229.654 116.907C226.418 116.362 223.183 115.563 219.948 114.51V103.869C223.768 105.662 227.237 106.987 230.355 107.845C233.473 108.702 236.338 109.131 238.95 109.131C244.758 109.131 248.987 107.552 251.637 104.395C254.288 101.238 255.613 96.2292 255.613 89.3689V88.9012V81.5927C253.898 85.2567 251.559 87.9852 248.597 89.7782C245.635 91.5712 242.029 92.4677 237.781 92.4677C230.141 92.4677 224.041 89.4079 219.48 83.2883C214.92 77.1687 212.639 68.9832 212.639 58.7318C212.639 48.4415 214.92 40.2365 219.48 34.1169C224.041 27.9972 230.141 24.9374 237.781 24.9374C241.99 24.9374 245.557 25.7754 248.48 27.4515C251.404 29.1276 253.781 31.7197 255.613 35.2277V26.7499H266.371V87.7903ZM343.081 53.879V59.1411H296.482V59.4919C296.17 68.418 297.866 74.8299 301.569 78.7278C305.311 82.6257 310.573 84.5746 317.355 84.5746C320.785 84.5746 324.371 84.0289 328.113 82.9375C331.855 81.8461 335.851 80.1895 340.099 77.9677V88.6673C336.007 90.3434 332.05 91.5907 328.23 92.4093C324.449 93.2668 320.785 93.6956 317.238 93.6956C307.065 93.6956 299.113 90.6552 293.383 84.5746C287.654 78.455 284.789 70.0356 284.789 59.3165C284.789 48.8702 287.595 40.5288 293.208 34.2923C298.821 28.0557 306.305 24.9374 315.66 24.9374C324.001 24.9374 330.569 27.7634 335.363 33.4152C340.197 39.0671 342.769 45.8884 343.081 53.879ZM332.323 50.7217C331.855 46.2002 330.199 42.3023 327.353 39.0282C324.547 35.715 320.493 34.0584 315.192 34.0584C310.008 34.0584 305.74 35.7734 302.388 39.2036C299.035 42.6337 297.203 46.4925 296.892 50.7802L332.323 50.7217ZM417.277 40.0221C414.977 38.2291 412.638 36.9233 410.261 36.1048C407.883 35.2862 405.271 34.8769 402.426 34.8769C395.722 34.8769 390.596 36.9818 387.049 41.1915C383.502 45.4011 381.728 51.4818 381.728 59.4334V92H370.912V26.516H381.728V39.3205C383.521 34.682 386.269 31.135 389.972 28.6793C393.714 26.1847 398.138 24.9374 403.245 24.9374C405.895 24.9374 408.37 25.2687 410.67 25.9314C412.97 26.594 415.172 27.6269 417.277 29.0302V40.0221ZM444.64 68.379H465.22V92H444.64V68.379Z" fill="#FDFDFD"/>
</svg>
